<?xml version="1.0" encoding="UTF-8" standalone="no"?>
<!-- Created with Inkscape (http://www.inkscape.org/) -->

<svg
   width="100"
   height="100"
   viewBox="0 0 26.458333 26.458333"
   version="1.1"
   id="svg1"
   inkscape:version="1.2.2 (b0a8486541, 2022-12-01)"
   sodipodi:docname="about.svg"
   xmlns:inkscape="http://www.inkscape.org/namespaces/inkscape"
   xmlns:sodipodi="http://sodipodi.sourceforge.net/DTD/sodipodi-0.dtd"
   xmlns="http://www.w3.org/2000/svg"
   xmlns:svg="http://www.w3.org/2000/svg">
  <sodipodi:namedview
     id="namedview1"
     pagecolor="#ffffff"
     bordercolor="#666666"
     borderopacity="1.0"
     inkscape:showpageshadow="2"
     inkscape:pageopacity="0.0"
     inkscape:pagecheckerboard="0"
     inkscape:deskcolor="#d1d1d1"
     inkscape:document-units="mm"
     inkscape:zoom="8.7236776"
     inkscape:cx="61.04077"
     inkscape:cy="54.449513"
     inkscape:window-width="3200"
     inkscape:window-height="1731"
     inkscape:window-x="0"
     inkscape:window-y="0"
     inkscape:window-maximized="1"
     inkscape:current-layer="layer1"
     showgrid="false" />
  <defs
     id="defs1" />
  <g
     inkscape:label="Layer 1"
     inkscape:groupmode="layer"
     id="layer1"
     transform="translate(-29.322083,-29.322083)">
    <path
       id="rect1"
       style="opacity:1;fill:#676c53;stroke:none;stroke-width:0.0113049;stroke-linecap:round;stroke-dasharray:none;paint-order:markers stroke fill"
       d="m 42.551249,31.802552 c -2.870729,0 -5.570305,1.117864 -7.600156,3.148541 -2.02985,2.030677 -3.148541,4.729427 -3.148541,7.600156 0,2.87073 1.117864,5.570306 3.148541,7.600157 2.030677,2.02985 4.729427,3.148541 7.600156,3.148541 2.87073,0 5.570306,-1.117864 7.600157,-3.148541 2.02985,-2.030677 3.148541,-4.729427 3.148541,-7.600157 0,-2.870729 -1.117864,-5.570305 -3.148541,-7.600156 -2.030677,-2.02985 -4.729427,-3.148541 -7.600157,-3.148541 z m 0,-2.480469 v 0 c 7.306635,0 13.229167,5.922532 13.229167,13.229166 0,7.306635 -5.922532,13.229167 -13.229167,13.229167 -7.306634,0 -13.229166,-5.922532 -13.229166,-13.229167 0,-7.306634 5.922532,-13.229166 13.229166,-13.229166 z m -1.653645,18.190104 h 3.307291 v 3.307292 h -3.307291 z m 0,-13.229167 h 3.307291 v 9.921875 h -3.307291 z" />
  </g>
</svg>
